# xmcd CD database file
#
# Track frame offsets:
#	150
#	14801
#	34738
#	56540
#	73682
#	93453
#	112356
#	138343
#	156229
#	177259
#	209860
#	227317
#	246071
#	264353
#
# Disc length: 4462 seconds
#
# Revision: 25
# Processed by: cddbd v1.5PL3 Copyright (c) Steve Scherf et al.
# Submitted via: CDex 1.51
#
DISCID=cc116c0e
DTITLE=Robbie Williams - Escapology
DYEAR=2002
DGENRE=Popular
TTITLE0=How Peculiar
TTITLE1=Feel
TTITLE2=Something Beautiful
TTITLE3=Monsoon
TTITLE4=Sexed Up
TTITLE5=Love Somebody
TTITLE6=Revolution
TTITLE7=Handsome Man
TTITLE8=Come Undone
TTITLE9=Me and My Monkey
TTITLE10=Song 3
TTITLE11=Hot Fudge
TTITLE12=Cursed
TTITLE13=Nan's Song
EXTD=YEAR: 2002
EXTT0=
EXTT1=
EXTT2=
EXTT3=
EXTT4=
EXTT5=
EXTT6=
EXTT7=
EXTT8=
EXTT9=
EXTT10=
EXTT11=
EXTT12=
EXTT13=
PLAYORDER=
